<svg width="64" height="64" viewBox="0 0 64 64" xmlns="http://www.w3.org/2000/svg">
<path fill-rule="evenodd" clip-rule="evenodd" d="M32 0C14.3269 0 0 14.3269 0 32C0 49.6731 14.3269 64 32 64C49.6731 64 64 49.6731 64 32C64 14.3269 49.6731 0 32 0ZM12.0017 29.734C12.1532 18.8633 21.0543 10.0379 31.9251 10C42.9663 9.98109 51.9621 18.958 52 29.9802C52 38.692 46.4131 46.1159 38.6294 48.8431C38.44 48.9188 38.2316 48.7673 38.2695 48.559L38.5536 46.5136C38.5725 46.2674 38.724 46.0591 38.9513 45.9644C45.1064 43.2562 49.4244 37.1201 49.4244 29.9802C49.4244 20.3216 41.527 12.481 31.8493 12.5567C22.399 12.6325 14.672 20.3405 14.5773 29.8098C14.5016 37.0254 18.8385 43.2562 25.0504 45.9644C25.2587 46.078 25.4102 46.2674 25.4481 46.5136C25.4986 46.9682 25.5659 47.4227 25.6333 47.8772C25.6669 48.1045 25.7006 48.3317 25.7322 48.559C25.7511 48.7484 25.5617 48.9188 25.3723 48.8431C17.5128 46.078 11.8881 38.5405 12.0017 29.734ZM36.6408 28.3513C36.6408 30.9269 34.5575 33.0102 31.9819 33.0102C29.4062 33.0102 27.323 30.9269 27.323 28.3513C27.323 25.7756 29.4062 23.6924 31.9819 23.6924C34.5575 23.6924 36.6408 25.7946 36.6408 28.3513ZM36.8493 38.0102C36.7735 37.3284 36.5463 36.836 36.0917 36.3815C35.2395 35.4914 33.7433 34.9043 31.9821 34.9043C30.2208 34.9043 28.7246 35.4725 27.8724 36.3815C27.4368 36.855 27.1906 37.3284 27.1148 38.0102C26.9639 39.331 27.0573 40.4638 27.2078 42.2888L27.2095 42.3093C27.361 44.0516 27.6451 46.3811 28.0049 48.7295C28.2701 50.415 28.4784 51.3241 28.6678 51.968C28.9898 53.0285 30.145 53.9376 31.9821 53.9376C33.8191 53.9376 34.9933 53.0096 35.2963 51.968C35.4857 51.3241 35.694 50.415 35.9592 48.7295C36.319 46.3621 36.6031 44.0516 36.7546 42.3093C36.925 40.4722 37.0008 39.3359 36.8493 38.0102ZM31.4706 16.628C24.3875 16.8931 18.7059 22.7451 18.6112 29.8282C18.5544 34.4871 20.8839 38.6157 24.4633 41.0588C24.6337 41.1724 24.8799 41.0398 24.8799 40.8315C24.8231 40.0171 24.8231 39.2975 24.861 38.5399C24.8799 38.2937 24.7852 38.0665 24.5958 37.896C22.4179 35.8507 21.0922 32.9341 21.168 29.7146C21.3195 24.033 25.8837 19.412 31.5652 19.1847C37.7392 18.9385 42.8148 23.9004 42.8148 29.9986C42.8148 33.1046 41.4891 35.9075 39.3869 37.896C39.2164 38.0665 39.1217 38.2937 39.1217 38.5399C39.1596 39.2785 39.1407 39.9982 39.1028 40.8126C39.0839 41.0209 39.3301 41.1724 39.5195 41.0398C43.042 38.6346 45.3715 34.5628 45.3715 29.9797C45.3904 22.4421 39.0839 16.325 31.4706 16.628Z"/>
</svg>
