<svg width="64" height="64" viewBox="0 0 64 64" fill="none" xmlns="http://www.w3.org/2000/svg">
<path d="M64 32C64 14.3269 49.6731 0 32 0C14.3269 0 0 14.3269 0 32C0 49.6731 14.3269 64 32 64C49.6731 64 64 49.6731 64 32Z" fill="#A91CD2"/>
<path d="M36.8493 38.0102C36.7735 37.3284 36.5463 36.836 36.0917 36.3815C35.2395 35.4914 33.7433 34.9043 31.9821 34.9043C30.2208 34.9043 28.7246 35.4725 27.8724 36.3815C27.4368 36.855 27.1906 37.3284 27.1148 38.0102C26.9633 39.3359 27.058 40.4722 27.2095 42.3093C27.361 44.0516 27.6451 46.3811 28.0049 48.7295C28.2701 50.415 28.4784 51.3241 28.6678 51.968C28.9898 53.0285 30.145 53.9376 31.9821 53.9376C33.8191 53.9376 34.9933 53.0096 35.2963 51.968C35.4857 51.3241 35.694 50.415 35.9592 48.7295C36.319 46.3621 36.6031 44.0516 36.7546 42.3093C36.925 40.4722 37.0008 39.3359 36.8493 38.0102Z" fill="#fff"/>
<path d="M36.6408 28.3513C36.6408 30.9269 34.5575 33.0102 31.9819 33.0102C29.4062 33.0102 27.323 30.9269 27.323 28.3513C27.323 25.7756 29.4062 23.6924 31.9819 23.6924C34.5575 23.6924 36.6408 25.7946 36.6408 28.3513Z" fill="#fff"/>
<path d="M31.9251 10C21.0543 10.0379 12.1532 18.8633 12.0017 29.734C11.8881 38.5405 17.5128 46.078 25.3723 48.8431C25.5617 48.9188 25.7511 48.7484 25.7322 48.559C25.6375 47.8772 25.5238 47.1954 25.4481 46.5136C25.4102 46.2674 25.2587 46.078 25.0504 45.9644C18.8385 43.2562 14.5016 37.0254 14.5773 29.8098C14.672 20.3405 22.399 12.6325 31.8493 12.5567C41.527 12.481 49.4244 20.3216 49.4244 29.9802C49.4244 37.1201 45.1064 43.2562 38.9513 45.9644C38.724 46.0591 38.5725 46.2674 38.5536 46.5136C38.4589 47.1954 38.3642 47.8772 38.2695 48.559C38.2316 48.7673 38.44 48.9188 38.6294 48.8431C46.4131 46.1159 52 38.692 52 29.9802C51.9621 18.958 42.9663 9.98112 31.9251 10Z" fill="#fff"/>
<path d="M31.4704 16.628C24.3874 16.8931 18.7058 22.7451 18.6111 29.8282C18.5543 34.4871 20.8838 38.6157 24.4631 41.0588C24.6336 41.1724 24.8798 41.0398 24.8798 40.8315C24.823 40.0171 24.823 39.2975 24.8609 38.5399C24.8798 38.2937 24.7851 38.0665 24.5957 37.896C22.4178 35.8507 21.0921 32.9341 21.1678 29.7146C21.3193 24.033 25.8835 19.412 31.5651 19.1847C37.7391 18.9385 42.8146 23.9004 42.8146 29.9986C42.8146 33.1046 41.4889 35.9075 39.3868 37.896C39.2163 38.0665 39.1216 38.2937 39.1216 38.5399C39.1595 39.2785 39.1406 39.9982 39.1027 40.8126C39.0837 41.0209 39.3299 41.1724 39.5193 41.0398C43.0419 38.6346 45.3714 34.5628 45.3714 29.9797C45.3903 22.4421 39.0837 16.325 31.4704 16.628Z" fill="#fff"/>
</svg>
