<svg width="64" height="64" viewBox="0 0 64 64" fill="none" xmlns="http://www.w3.org/2000/svg">
<path d="M64 32C64 14.3269 49.6731 0 32 0C14.3269 0 0 14.3269 0 32C0 49.6731 14.3269 64 32 64C49.6731 64 64 49.6731 64 32Z" fill="#f5f5f5"/>
<path d="M32.5 20C31.119 20 30 18.881 30 17.5V14.5C30 13.119 31.119 12 32.5 12C33.881 12 35 13.119 35 14.5V17.5C35 18.881 33.881 20 32.5 20Z" fill="#F9A825"/>
<path d="M32.5 41C31.119 41 30 39.881 30 38.5V25.5C30 24.119 31.119 23 32.5 23C33.881 23 35 24.119 35 25.5V38.5C35 39.881 33.881 41 32.5 41Z" fill="#F9A825"/>
<path d="M32.5 52C31.119 52 30 50.881 30 49.5V46.5C30 45.119 31.119 44 32.5 44C33.881 44 35 45.119 35 46.5V49.5C35 50.881 33.881 52 32.5 52Z" fill="#F9A825"/>
<path d="M23.5 44C22.119 44 21 42.881 21 41.5V38.5C21 37.119 22.119 36 23.5 36C24.881 36 26 37.119 26 38.5V41.5C26 42.881 24.881 44 23.5 44Z" fill="#E53935"/>
<path d="M41.5 28C40.119 28 39 26.881 39 25.5V22.5C39 21.119 40.119 20 41.5 20C42.881 20 44 21.119 44 22.5V25.5C44 26.881 42.881 28 41.5 28Z" fill="#43A047"/>
<path d="M23.5 33C22.119 33 21 31.881 21 30.5V21.5C21 20.119 22.119 19 23.5 19C24.881 19 26 20.119 26 21.5V30.5C26 31.881 24.881 33 23.5 33Z" fill="#E53935"/>
<path d="M41.5 45C40.119 45 39 43.881 39 42.5V33.5C39 32.119 40.119 31 41.5 31C42.881 31 44 32.119 44 33.5V42.5C44 43.881 42.881 45 41.5 45Z" fill="#43A047"/>
<path d="M14.5 36C13.119 36 12 34.881 12 33.5V30.5C12 29.119 13.119 28 14.5 28C15.881 28 17 29.119 17 30.5V33.5C17 34.881 15.881 36 14.5 36Z" fill="#1565C0"/>
<path d="M50.5 36C49.119 36 48 34.881 48 33.5V30.5C48 29.119 49.119 28 50.5 28C51.881 28 53 29.119 53 30.5V33.5C53 34.881 51.881 36 50.5 36Z" fill="#1E88E5"/>
</svg>
