<?xml version="1.0" encoding="utf-8"?>
<!-- Generator: Adobe Illustrator 25.4.1, SVG Export Plug-In . SVG Version: 6.00 Build 0)  -->
<svg version="1.1" id="Layer_1" xmlns="http://www.w3.org/2000/svg" xmlns:xlink="http://www.w3.org/1999/xlink" x="0px" y="0px"
	 viewBox="0 0 2000 2000" style="enable-background:new 0 0 2000 2000;" xml:space="preserve">
<style type="text/css">
	.st0{display:none;fill:#191919;}
	.st1{display:none;}
	.st2{display:inline;fill:none;}
	.st3{display:inline;}
	.st4{fill:#FFFFFF;}
	.st5{fill:#ED1848;}
	.st6{fill:none;}
	.st7{fill:#414042;}
	.st8{font-family:'MyriadPro-Regular';}
	.st9{font-size:143.2273px;}
</style>
<g id="pod_vocasem_-_original">
	
		<rect id="safe_zone_00000099636163826359624720000011817898347805601942_" x="500" y="190" class="st6" width="1000" height="1620"/>
	<g id="winner_x5F_original">
		<g>
			<g>
				<g>
					<path class="st7" d="M1413.5,1274.9c-1.4-6.2-2.9-12.4-5.7-18.2c-6.5-9.2-13.6-18.6-19.3-28.5c-5.9-11-12.1-21.8-17-33.3
						c-2.3-6.3-5.3-12.4-7.7-18.7c-2.8-8.4-5.8-16.8-8.7-25.2c-3.1-10-8-20.1-17.5-25.3c-8-4.1-15.2-9.6-21.9-15.6
						c-9.3-7.5-15.8-18.1-18.3-29.8c-2.3-13.8-4.9-27.9-2.6-41.9c1.7-9.6,3.7-18.7,7.2-27.9c3.3-7.9,7.4-15.4,11-23.1
						c2.5-5.8,5.9-12.2,7.7-18.4c0.7-2.4,1.5-4.9,2.1-7.4c0.6,0.1,1.2,0,1.9-0.1c0,0,0.1,0,0.1,0c0.3,1.5,0.7,2.9,0.8,3.5
						c1.9,8.8,10.1,14,15.6,20.6c4.2,4.7,8.1,9.7,11.3,15.1c5.4,11.7,3.4,26.2,12.5,36.4c4.1,5.7,10.4,8.6,16.8,10.9
						c5.6,2.1,11.1,4.6,17.1,5.6c2.6,0.4,5.3,0.3,7.8,1c1.7,0.5,3.7-1,3.6-2.8c-0.1-1.1-0.6-1.8-1.3-2.6c-2.1-2.1-4-4.4-5.8-6.8
						c-2.9-3.9-3.8-8.7-5-13.3c-1.2-4.8-2.5-9.6-3.4-14.5c-2.1-11.9-3.6-23.9-6.2-35.7c-2-8.6-4.8-17-7.5-25.4
						c-5.7-20.5-13.8-39.5-28-55.8c-4.8-7.3-10.8-13.5-17.3-19.3c-10.7-10.7-24.5-18.5-39.9-19c-4.2-0.1-8.4,0.6-12.6,1.3
						c-2.6,0.2-5.5,1.3-6.6,3.4c-0.2,0-0.4,0.2-0.3,0.5c-3.4-3.8-15.7-18.1-20.4-17.3c-0.4,0.1-0.7,0.3-1,0.5
						c0.7-6.1-1.9-13.7-5.5-18c-1.3-1.4-3.2-1.7-5-1.7c-2.9-0.2-5.8-1-8.6-1.8c-13-3.7-25.7-9.4-39.1-11.3
						c-10.4-1.8-21-1.8-31.3-4.4c-1.3-0.2-2.9-0.6-4.3-0.8c0,0,0,0-0.1,0c-0.9-2.8-2.3-5.5-3.6-8.2c-5-10.4-11.2-20.2-17-30.2
						c-5.1-8.6-10.1-17-14.7-25.9c-4.7-8.2-10.1-16.1-14.5-24.5c-5.2-11-12.3-21.5-17.8-32.4c-3.4-7.3-5.2-15.3-6-23.3
						c-0.5-8.9-1.1-18-2.2-27c-1-6.6-1.3-13.6-4.3-19.7c-3.9-9-12.8-14.1-21.6-17.4c-3.7-1.1-7.6-1.8-11.1-3.4
						c-2.6-1.3-5.4-2.7-7.6-4.9c-1.4-4.7-0.3-9.8-0.5-14.7c0-10.2-1.6-20.2-3.1-30.3c-2-12.7-3.2-27-12.4-36.8
						c-4.2-5-9.9-8.3-16.4-9.2c-3.3-0.6-6.7-1.4-10-0.5c-6.6,2.4-12.4,6.3-17.4,11.3c-3.9,3.2-8.1,6.1-11.5,9.9
						c-5.9,6.1-11,13.1-14.2,21.1c-4.5,10.8-9.7,21.6-11.2,33.3c-0.2,1.5-0.3,3-0.5,4.5c-0.4,2.5,2.9,4.3,4.8,2.6
						c0.6-0.5,1-1.2,1.1-1.9c0.2-3.9,0.9-7.7,1.9-11.4c0.7-1,1.5-1.8,2.4-2.6c1.4-0.8,2.8-2,4.4-1.9c2.3,1.4,2.9,4.8,1.9,7.1
						c-2.3,4.3-6.7,7.5-7.8,12.5c-1,3.6-0.9,8.2,3,9.9c2.5,1.6,5.8,1.4,8.2,3.3c8.4,7.6,2.1,16.7,8,20c1.4,0.8,2.8,0.5,3.8-0.4
						c0.1,0,0.2,0.1,0.4,0.1c2.3,0.4,4.6,0.1,7.1,0.7c1,1.9,0.1,4-0.8,5.8c-1.8,3.4-4.2,7.5-6,11.1c-4.6,9.8-8.6,20-13.5,29.7
						c-2.8,5.8-6.7,11-10.1,16.5c-0.4,0.5-0.8,0.9-1.2,1.3c-0.6,0-1.2,0-1.6,0c-3.5-1.3-6.5-3.8-9.6-5.9c-7.5-5.3-14-11.8-20.7-17.9
						c-6.5-5.3-12.4-11.4-16.4-18.9c-3.7-9.7-6-19.3-10.6-28.9c-2.5-5.5-6.2-10.4-10.1-15c-2-2.5-5.5-7-8.6-3.4
						c-0.1,0.2-0.2,0.3-0.3,0.5c-0.3-1.3-0.7-2.6-1.1-3.9c-9.4-40.4-23.3-79.5-34.6-119.3c-2.6-10.8-5.3-21.5-8-32.2
						c-0.4-2.1-0.9-4.1-1.4-6.2c1.9,0.1,3.8,0.3,5.7,0.6c12.1,2.6,23.8,6.7,35.6,10.4c17.8,6.3,37.2,15.5,44.5,34.2
						c1,2.6,1.7,5.4,2.6,8.1c0.3,1.2,1,2.4,2.3,2.5c2.1,0.2,2.6-2.1,2.3-3.7c-0.4-5.2-1.3-10.3-2.7-15.3
						c-3.4-11.5-7.3-23.1-14.7-32.7c-2.6-4-5.3-7.7-8.6-11c-5.9-6.2-12-13.2-19.1-18.3c-6.3-4.5-12.5-9.3-19-13.4
						c-4.3-2.8-9.2-4.6-13.7-6.9c-6.7-4-13.8-7.3-20.5-11.3c-3.7-2.4-6.9-5.5-10.5-8.1c-1.4-0.9-2.8-1.9-4-3
						c-1.3-4.1-2.8-8.2-4.1-12.4c-1.8-6.7-3.8-13.4-5.7-20.1c-2.7-10.1-6.6-19.8-9.1-29.9c-1.5-8.6-5-16.5-7.3-24.8
						c-1-5.3-3.4-10.1-5.4-15c-0.4-1.6-1.3-3.4-3-2.8c-0.4-1-0.8-1.9-1.5-2.6c-0.4-0.4-1.2-0.6-1.7-0.2c-0.8,0.5-0.8,1.7-0.3,2.5
						c1.4,8.9,4.8,17.3,6.6,26.1c4.8,20.4,11.3,40.3,16.7,60.5c1.2,5.5,2.8,10.8,4.4,16.2c-0.1,6.5,1.2,13.1,1.6,19.7
						c1.1,11.3,2.8,22.7,5.7,33.8c1.8,5.5,1.9,12.2,6.7,16.1c2.3,1.9,5.1,2.1,8,1.9c0.4,1.4,0.8,2.9,1.3,4.3
						c3.5,13.9,7.3,27.7,10.9,41.6c3,11.8,5.1,23.4,8.5,35.2c3.4,9.8,5.7,20,8.7,29.9c6.5,20.2,12.6,40.5,18.5,60.8
						c-0.3-0.2-0.7-0.3-1.1-0.3c-4.9-0.1-3.5,6.2-3.8,9.5c-0.1,5.6,1.2,11,2.6,16.4c1.1,5,3.1,9.7,6.5,13.6c2.5,3.4,4,6.6,6.1,10.4
						c3.4,5.9,7.2,11,10.1,17.2c4.3,8.3,8.8,16.1,11.4,25.3c1.6,5.8,4.6,11,7.2,16.4c2.8,4.6,5.8,9.2,7,14.6
						c1.9,8.9,2.2,18-4.5,25.1c-2.1,2.1-5.2,2.6-8.1,3c-0.8,0.1-1.5,0.2-2.2,0.3c-0.4,0-0.9,0.1-1.2,0.3c-0.5-0.6-1-1.2-1.5-1.7
						c-3.4-3.1-6.1-6.9-9.9-9.6c-4.2-2.8-7.7-6.3-11.5-9.6c-6.9-5.2-13.9-10.2-21.1-15c-9.9-6.2-20.6-10.8-31.3-15.2
						c-9.3-5.2-19.2-9.1-29.3-12.4c-8.2-2.8-16.8-3.2-25.3-4.3c-10.9-1.2-21.7-0.1-32.6,1c-18.8,1.5-37.5,5-55.3,11.3
						c-7.8,2.6-15.7,5.4-22.5,10.2c-1.1,0.6-2.2,1.3-3.3,1.9c-4.4-4.3-8.4-9.1-14-11.9c-4.2-2.3-8.7-3.9-12.7-6.4
						c-1.7-1-3.2-2.4-5.1-3c-4.5-1.2-8.1,3.9-6,7.9c2.7,6.5,4.2,13.4,6.1,20.2c1.4,5.4,4.4,12.1,0.8,17.1c-5.3-0.5-11,0.9-15.9-1.8
						c-2.5-1.1-4.6-3.2-7.3-3.6c-4.6-0.6-7.3,4.9-4.9,8.5c2.8,4.1,6.4,7.6,9.6,11.4c9.3,8.7,9.5,9.4,11.2,22
						c2.4,14.3,6,29.1,16.3,39.9c4.7,5.7,9.2,11.5,13.5,17.5c4.6,7.2,9.1,14.4,14.7,20.8c4.3,5.8,9.1,11.1,14.3,16.1
						c4.5,4.9,8.6,10.2,12.5,15.5c4.7,6.2,7,13.6,10.9,20.2c6.3,9.3,14.2,20.2,26.2,22c10.4,1.2,16.3-5.4,23.5-11.5
						c12.3-7.3,16-18.6,16.1-31c9.3-5.6,18.6-11.3,26.8-18.3c0.2,0.5,0.4,1,0.6,1.4c0.1,0.8,0.3,1.6,0.8,2.4
						c0.2,0.3,0.5,0.6,0.7,0.9c1.4,3.1,2.9,6.1,4.1,9.2c2.4,7.9,5.8,15.6,6,24.1c1.1,7.9,0.8,16.1-0.6,24.1
						c-0.8,5.5-0.2,11-0.2,16.5c-0.1,5.8,0.9,11.6,2.8,17.2c2.6,12.9,9.1,25.5,19.3,34c1.6,1.2,3.2,2.4,4.8,3.6c3.6,4,7.4,7.7,11,11
						c-0.2,2.2-1.1,4.3-1.8,6.4c-1.3,2.1-2.9,3.4-4.7,5.2c-7.7,7.8-17.6,12.7-27.1,17.9c-10.8,6-22.8,9.8-34,15
						c-6.6,2.6-13.2,5.7-18.5,10.5c-6.4,6.8-10.9,15.9-12.3,25.2c-0.5,6,0.7,12.3,2.5,18c2.6,4.6,4.1,9.7,5.6,14.7
						c1.4,4.3,3.4,8.5,4.8,12.8c4.7,11.4,7.1,23.8,8.9,36c1.4,8.1,0.3,16.7,4,24.3c1.3,3.5,3.8,6.2,6.5,8.7c1.1,1.3,2,2.8,3.5,3.6
						c1.7,1,3.7,0.9,5.3,2c2.6,2.3,5.1,4.4,7.6,6.9c10.1,13,19.5,27.6,34,36.2c3.7,2.5,7.4,5.7,11.9,6.9c2.3,1,4.9,1.6,7.4,0.9
						c4.3,0.1,5.4-4.5,6.7-7.8c3.2-9.8,3.5-20.6,1.1-30.7c-1.2-7.7-0.6-15.1-7.5-20.3c-2.2-1.8-4.6-3.2-6.4-5.4
						c-6.7-7.2-17-5.2-25.6-6.9c-2.3-0.8-2.1-3.6-2.8-5.6c-1.5-3.3-1.3-6.9-2.7-10.2c-0.7-1.5-1.6-2.9-2.5-4.3
						c-1.9-2.8-4.3-5.1-5.9-8.3c-2.3-6.1-2.7-12.7-4.2-19c-1.5-6.7-3.9-13.2-5.6-19.8c-2.4-8-2.4-8.9,1.6-16.3
						c1.3-2.2,1.7-5.3,3.9-6.8c5.5-1.8,11.4-2.5,16.9-4.3c15.5-5.4,31.9-6.4,47.7-10.8c3.8-0.8,7.7-1.4,11.6-2
						c8.4-1.3,16.8-2.6,24.7-5.7c4.3-2,7.6-5.8,10.3-9.7c2.4-3.5,5-7,6.9-10.9c0.6-2.3,3.8-3.6,3.4-6.1c2.4,0,4.8-0.2,7.2-0.3
						c4.1-0.1,11.7-2.4,13.5,2.6c0.5,4.3-2,8.5-3.5,12.5c-2.6,5.8-7.2,10.6-12.9,13.3c-6.1,3.1-12.1,6.6-18.3,9.5
						c-5.6,2.4-11.3,4.9-15.3,9.6c-9.3,10.6,1.2,14.5,9.4,19.5c5.3,3.5,12.1,2.3,18.2,2.3c14.2-0.1,28.2-3.2,42.4-3.2
						c7.6-0.4,15-2.6,21.2-7.1c0,1.9,0.1,3.6,0.2,4.3c0.3,4.4,0.1,8.8,1.1,13.1c1.5,6.5,4.5,12.6,7.3,18.7
						c3.4,6.8,8.8,12.3,13.2,18.5c4,5.7,5.2,12.7,6.7,19.3c3.5,15.2,5.4,30.7,5.4,46.4c-0.2,14.4,4.4,15.8-7.4,27.5
						c-6.1,4.2-9.6,10.9-12.7,17.5c-0.1,0.3-0.2,0.6-0.3,0.8H570.2v59.7h869.7v-59.7H1413.5z M852.5,537.6c0.7,2.1,1.4,4.1,2.2,6.2
						c3.5,9.1,6.1,18.4,8.4,27.9C859.6,560.3,856,549,852.5,537.6z M760.3,856.9c-0.9-4.8-1.8-9.5-2.5-13.9
						c-0.7-5.5-1.4-11-1.9-16.5c-0.1-2-0.5-4.1,0.6-5.9c5.9,1.9,10.8,5.8,15,10.3c2.1,2.1,4.3,4.2,6.3,6.4c0.7,1.8,1.6,3.6,2.5,5.3
						c-2,1.6-4,3.3-6.1,4.9c-4.4,3.1-8.7,6.2-13.3,9.1C760.7,856.6,760.5,856.7,760.3,856.9z M768.8,872.3c-1.9,1.2-3.8,2.4-5.6,3.6
						c-0.3-4-0.9-7.9-1.6-11.9c6.8-3.3,12.9-8,18.4-13.3c1.3-0.9,2.5-1.8,3.8-2.7c0.3,0.4,0.5,0.8,0.8,1.2c1.1,2.3,2.2,4.5,3.2,6.8
						c0.1,0.6,0.2,1.3,0.3,1.9C781.9,863.1,775.6,868.1,768.8,872.3z M1050.5,1273.5c-1.4-4-3.5-7.9-4-12.2c-0.2-3,1.8-5.5,3-8.1
						c1.3-2.8,2.6-5.8,2.9-8.9c0.6-8.7-2.4-17-5.9-24.8c-3.3-9.2-4-19.1-6.5-28.7c-3.8-16.4-7.3-33-9-49.7c0.1-1.9,0.3-3.8,1-5.6
						c1-2.1,2.5-3.7,3.6-5.8c1.8-3.3,2.1-7.1,1.9-10.7c-0.9-11.3-1.9-22.5-4.6-33.5c-2-9.9-7-19.3-6.5-29.6
						c4.6,1.5,8.9,4.2,13.8,4.6c14.4,1.9,28.8,0,43.2-1.4c11.4-1.6,21.9-6.4,32.3-11.1c8.1-3.1,15.8-6.8,23.5-10.6
						c4.8-2.3,9-5.4,13.6-7.9c0.3,3.8,1,7.6,2.4,11.2c1.8,4.8,6.3,8.8,10,12.4c4.9,4.7,10.2,9.1,16.5,11.8
						c5.5,2.8,10.4,6.5,15.6,9.8c9.7,6.6,19.6,12.6,28.1,20.8c9.6,9.6,19,20.4,23.2,33.6c0.1,0.3,0.2,0.6,0.5,0.8
						c-5.8,7.6-14.3,12.4-20.9,19.2c-7.7,9.3-21.7,15-22.5,28.5c-1.3,7.2,0.5,14.3,1.6,21.5c1.4,8.7,2.9,17.4,4,26.2
						c1.2,8.8,2.6,17.5,4.4,26.2c1.3,4.3,0.8,12.6,5.1,15c3.7,1.1,6.6-2.6,9-4.9c2.7-2.7,5.6-5.3,8.6-7.7c3.5-2.7,6.8-5.5,10.1-8.4
						c6.6-5.4,15-12.1,13.4-21.7c-0.9-5.4-5.4-9.4-7.1-14.5c-1-2.9-2.2-5.9-2.1-9c0.9-5.4,3.2-11.6-0.3-16.6
						c5.9-3.4,11-7.7,15.4-12.8c3.3-3,6.4-6.2,9.1-9.8c1.3-1.6,2.7-3.1,4.2-4.5c0.5-0.7,0.7-1.5,0.6-2.3c2.1,1.7,3.8,3.8,6,5.4
						c4,3.6,8.7,6.5,12,10.8c1.7,2.5,2.6,5.5,4.2,8.1c3.5,5.4,8.1,10.1,13.2,14c3.9,2.8,8.1,4.2,11.9,7.3c6.7,7,11.5,15.8,16.5,24.2
						c4.4,8.5,8.4,17.3,11.4,26.4c1.1,3.4,2.1,6.8,3,10.2c0.9,4.7,1.7,9.4,2.4,14.2h-311.5C1050.8,1274.4,1050.6,1274,1050.5,1273.5
						z"/>
				</g>
			</g>
			<g>
				<path class="st7" d="M577.5,1395.8c0-1.8,1.5-3.5,3.5-3.5h41.9c22.6,0,41.2,18.4,41.2,40.6c0,22.8-18.6,41.3-41,41.3h-26.6v43.2
					c0,1.8-1.7,3.5-3.5,3.5H581c-2,0-3.5-1.7-3.5-3.5V1395.8z M621.8,1456.2c12.7,0,23.3-10.3,23.3-23.5c0-12.5-10.7-22.1-23.3-22.1
					h-25.4v45.6H621.8z"/>
				<path class="st7" d="M743.3,1390.4c36.8,0,66.2,29.6,66.2,66.3s-29.4,66-66.2,66c-36.8,0-66-29.2-66-66
					S706.5,1390.4,743.3,1390.4z M743.3,1504.4c26.3,0,47.8-21.3,47.8-47.6c0-26.1-21.5-48-47.8-48c-26.1,0-47.6,21.9-47.6,48
					C695.7,1483.1,717.2,1504.4,743.3,1504.4z"/>
				<path class="st7" d="M835.7,1395.8c0-1.8,1.5-3.5,3.3-3.5h42.3c35.5,0,64.5,28.9,64.5,64.1c0,35.7-29,64.5-64.5,64.5H839
					c-1.8,0-3.3-1.7-3.3-3.5V1395.8z M878.7,1503.5c27,0,46.7-19.8,46.7-47c0-27-19.7-46.7-46.7-46.7h-24.3v93.7H878.7z"/>
				<path class="st7" d="M560.4,1617.6c-1.1-2.4,0.4-4.8,3.1-4.8h13c1.5,0,2.8,1.1,3.1,2l40.4,91h1.1l40.4-91c0.4-0.9,1.5-2,3.1-2
					h13c2.8,0,4.2,2.4,3.1,4.8l-56.4,123.7c-0.6,1.1-1.7,2-3.1,2h-1.8c-1.3,0-2.6-0.9-3.1-2L560.4,1617.6z"/>
				<path class="st7" d="M904.6,1611c18.6,0,32,6.2,44.5,17.1c1.7,1.5,1.7,3.7,0.2,5.1l-8.1,8.3c-1.3,1.7-2.9,1.7-4.6,0
					c-8.6-7.5-20.4-12.3-31.8-12.3c-26.3,0-46.1,22.1-46.1,47.8s20,47.6,46.3,47.6c13.4,0,22.8-5.3,31.6-12.1
					c1.7-1.3,3.3-1.1,4.4-0.2l8.5,8.3c1.5,1.3,1.1,3.7-0.2,5c-12.5,12.1-28.3,17.8-44.7,17.8c-36.8,0-66.3-29.2-66.3-66
					S867.9,1611,904.6,1611z"/>
				<path class="st7" d="M958.3,1736.7l56.4-123.7c0.6-1.1,2.2-2,3.1-2h1.8c0.9,0,2.6,0.9,3.1,2l56.1,123.7c1.1,2.4-0.4,4.8-3.1,4.8
					h-11.6c-2.2,0-3.5-1.1-4.2-2.8l-11.4-25.2h-60.1c-3.7,8.5-7.5,16.7-11.2,25.2c-0.6,1.3-2,2.8-4.2,2.8h-11.6
					C958.7,1741.4,957.2,1739.1,958.3,1736.7z M1041.6,1697.7l-22.6-50.4h-0.9l-22.4,50.4H1041.6z"/>
				<path class="st7" d="M1089,1722.9c1.7-2.4,3.1-5.1,4.8-7.5c1.7-2.4,4.2-3.1,6.2-1.5c1.1,0.9,15.3,12.7,29.4,12.7
					c12.7,0,20.8-7.7,20.8-17.1c0-11-9.6-18-27.7-25.5c-18.7-7.9-33.4-17.6-33.4-39c0-14.3,11-34,40.2-34c18.4,0,32.2,9.6,34,10.8
					c1.5,0.9,2.9,3.5,1.1,6.2c-1.5,2.2-3.1,4.8-4.6,7c-1.5,2.4-3.9,3.5-6.4,1.8c-1.3-0.7-14.2-9.2-24.8-9.2
					c-15.4,0-20.8,9.7-20.8,16.5c0,10.5,8.1,16.9,23.3,23.2c21.3,8.6,39.5,18.7,39.5,41.2c0,19.1-17.1,34.7-41,34.7
					c-22.4,0-36.6-11.8-39.5-14.5C1088.4,1727.3,1087.1,1726,1089,1722.9z"/>
				<path class="st7" d="M1195.9,1616.3c0-1.8,1.5-3.5,3.5-3.5h73.5c2,0,3.5,1.7,3.5,3.5v10.3c0,1.8-1.5,3.5-3.5,3.5h-58.1v37.5
					h49.1c1.8,0,3.5,1.7,3.5,3.5v10.3c0,2-1.7,3.5-3.5,3.5h-49.1v39.5h58.1c2,0,3.5,1.7,3.5,3.5v10.1c0,1.8-1.5,3.5-3.5,3.5h-73.5
					c-2,0-3.5-1.7-3.5-3.5V1616.3z"/>
				<path class="st7" d="M1318.1,1613.7c0.4-1.5,1.8-2.8,3.3-2.8h2.9c1.1,0,2.8,0.9,3.1,2l38.4,93.9h0.7l38.2-93.9
					c0.4-1.1,1.8-2,3.1-2h2.9c1.5,0,2.9,1.3,3.3,2.8l22.6,123.5c0.6,2.6-0.7,4.2-3.3,4.2h-11.9c-1.7,0-3.1-1.3-3.5-2.6l-13.6-82.1
					c-0.2,0-0.6,0-0.6,0l-33.1,84.5c-0.4,1.1-1.5,2-3.1,2h-3.3c-1.5,0-2.8-0.9-3.1-2l-33.3-84.5c-0.2,0-0.6,0-0.7,0l-13.2,82.1
					c-0.2,1.3-1.8,2.6-3.3,2.6h-11.9c-2.6,0-3.9-1.7-3.5-4.2L1318.1,1613.7z"/>
				<g>
					<g>
						<circle class="st5" cx="795.2" cy="1717" r="9.5"/>
						<path class="st5" d="M756.6,1743c-30.2,0.6-58-19.8-65.3-50.3c-8.6-35.3,13.1-71,48.5-79.6c17.1-4.1,34.8-1.4,49.8,7.7
							s25.6,23.6,29.8,40.7c2.5,10.2,2.5,20.9,0,31.1c-1.3,5.1-6.4,8.2-11.5,7c-5.1-1.3-8.2-6.4-7-11.5c1.8-7.3,1.8-14.8,0-22.1
							c-3-12.2-10.5-22.5-21.2-29c-10.7-6.5-23.3-8.5-35.5-5.5c-25.1,6.1-40.6,31.5-34.5,56.6c6.1,25.1,31.5,40.6,56.6,34.5
							c5.1-1.3,10.3,1.9,11.5,7c1.3,5.1-1.9,10.2-7,11.5C766.2,1742.3,761.3,1743,756.6,1743z"/>
					</g>
				</g>
			</g>
		</g>
		<g>
			<path class="st5" d="M1431.4,1543.6H1027c-4.7,0-8.4-3.8-8.4-8.4v-159c0-4.7,3.8-8.4,8.4-8.4h404.4c4.7,0,8.4,3.8,8.4,8.4v159
				C1439.9,1539.8,1436.1,1543.6,1431.4,1543.6z"/>
			<g>
				<g>
					<path class="st4" d="M1044.7,1441.9c-2.7,0-4.9,1.5-4.9,3.4v17.2c0,1.9,2.2,3.4,4.9,3.4c2.7,0,4.9-1.5,4.9-3.4v-17.2
						C1049.6,1443.5,1047.4,1441.9,1044.7,1441.9z"/>
					<path class="st4" d="M1069.2,1427.9c-2.7,0-4.9,1.5-4.9,3.4v47.5c0,1.9,2.2,3.4,4.9,3.4c2.7,0,4.9-1.5,4.9-3.4v-47.5
						C1074.1,1429.4,1071.9,1427.9,1069.2,1427.9z"/>
					<path class="st4" d="M1093.6,1404.2c-2.7,0-4.9,1.5-4.9,3.4v96.1c0,1.9,2.2,3.4,4.9,3.4s4.9-1.5,4.9-3.4v-96.1
						C1098.5,1405.7,1096.3,1404.2,1093.6,1404.2z"/>
					<path class="st4" d="M1118.1,1421.3c-2.7,0-4.9,1.5-4.9,3.4v58.4c0,1.9,2.2,3.4,4.9,3.4s4.9-1.5,4.9-3.4v-58.4
						C1123,1422.9,1120.8,1421.3,1118.1,1421.3z"/>
					<path class="st4" d="M1192,1413c-2.7,0-4.9,1.5-4.9,3.4v77.3c0,1.9,2.2,3.4,4.9,3.4c2.7,0,4.9-1.5,4.9-3.4v-77.3
						C1196.9,1414.6,1194.7,1413,1192,1413z"/>
					<path class="st4" d="M1240.5,1417.9c-2.7,0-4.9,1.5-4.9,3.4v68.7c0,1.9,2.2,3.4,4.9,3.4c2.7,0,4.9-1.5,4.9-3.4v-68.7
						C1245.4,1419.4,1243.2,1417.9,1240.5,1417.9z"/>
					<path class="st4" d="M1264.9,1435.1c-2.7,0-4.9,1.5-4.9,3.4v34.3c0,1.9,2.2,3.4,4.9,3.4s4.9-1.5,4.9-3.4v-34.3
						C1269.8,1436.6,1267.6,1435.1,1264.9,1435.1z"/>
					<path class="st4" d="M1216,1390.4c-2.7,0-4.9,1.5-4.9,3.4v123.6c0,1.9,2.2,3.4,4.9,3.4c2.7,0,4.9-1.5,4.9-3.4v-123.6
						C1220.9,1392,1218.7,1390.4,1216,1390.4z"/>
					<path class="st4" d="M1142.6,1445.4c-2.7,0-4.9,1.5-4.9,3.4v13.7c0,1.9,2.2,3.4,4.9,3.4c2.7,0,4.9-1.5,4.9-3.4v-13.7
						C1147.5,1446.9,1145.3,1445.4,1142.6,1445.4z"/>
					<path class="st4" d="M1289.4,1444.2c-2.7,0-4.9,1.5-4.9,3.4v14.9c0,1.9,2.2,3.4,4.9,3.4s4.9-1.5,4.9-3.4v-14.9
						C1294.3,1445.8,1292.1,1444.2,1289.4,1444.2z"/>
					<path class="st4" d="M1166.6,1437.7c-2.7,0-4.9,1.5-4.9,3.4v28c0,1.9,2.2,3.4,4.9,3.4c2.7,0,4.9-1.5,4.9-3.4v-28
						C1171.5,1439.2,1169.3,1437.7,1166.6,1437.7z"/>
				</g>
				<g>
					<path class="st4" d="M1315.9,1443.8c-2.7,0-4.9,1.5-4.9,3.4v17.2c0,1.9,2.2,3.4,4.9,3.4c2.7,0,4.9-1.5,4.9-3.4v-17.2
						C1320.8,1445.3,1318.6,1443.8,1315.9,1443.8z"/>
					<path class="st4" d="M1340.4,1429.7c-2.7,0-4.9,1.5-4.9,3.4v47.5c0,1.9,2.2,3.4,4.9,3.4s4.9-1.5,4.9-3.4v-47.5
						C1345.3,1431.3,1343.1,1429.7,1340.4,1429.7z"/>
					<path class="st4" d="M1364.9,1406c-2.7,0-4.9,1.5-4.9,3.4v96.1c0,1.9,2.2,3.4,4.9,3.4s4.9-1.5,4.9-3.4v-96.1
						C1369.7,1407.6,1367.6,1406,1364.9,1406z"/>
					<path class="st4" d="M1389.3,1423.2c-2.7,0-4.9,1.5-4.9,3.4v58.4c0,1.9,2.2,3.4,4.9,3.4s4.9-1.5,4.9-3.4v-58.4
						C1394.2,1424.7,1392,1423.2,1389.3,1423.2z"/>
					<path class="st4" d="M1413.8,1447.2c-2.7,0-4.9,1.5-4.9,3.4v13.7c0,1.9,2.2,3.4,4.9,3.4s4.9-1.5,4.9-3.4v-13.7
						C1418.7,1448.8,1416.5,1447.2,1413.8,1447.2z"/>
				</g>
			</g>
		</g>
	</g>
</g>
<text transform="matrix(1 0 0 1 1456.7917 165.4197)" class="st1 st8 st9">Original</text>
</svg>
