<svg width="64" height="64" viewBox="0 0 64 64" fill="none" xmlns="http://www.w3.org/2000/svg">
<path fill="#4CAF50" d="M64 32C64 14.3269 49.6731 0 32 0C14.3269 0 0 14.3269 0 32C0 49.6731 14.3269 64 32 64C49.6731 64 64 49.6731 64 32Z"/>
<path d="M44.3664 47.4202C43.8723 47.4202 43.3765 47.1748 42.8824 46.9261C38.1832 44.2067 32.4941 42.7227 26.3126 42.7227C22.8487 42.7227 19.3866 43.2151 16.1714 43.958C15.6773 43.958 14.9344 44.205 14.6874 44.205C13.4504 44.205 12.7092 43.2134 12.7092 42.2252C12.7092 40.9899 13.4504 40.2454 14.4403 40.0017C18.3966 39.0101 22.3546 38.5177 26.558 38.5177C33.484 38.5177 39.9143 40.2454 45.3546 43.4656C46.0958 43.958 46.5916 44.4538 46.5916 45.6891C46.3445 46.6807 45.3546 47.4202 44.3664 47.4202ZM47.8286 39.0101C47.0874 39.0101 46.5933 38.7664 46.0975 38.5177C40.9059 35.3025 33.7311 33.321 25.5714 33.321C21.6134 33.321 17.9042 33.8168 15.1832 34.5614C14.4403 34.805 14.1933 34.805 13.6992 34.805C12.2151 34.805 11.2252 33.5697 11.2252 32.3328C11.2252 30.8487 11.9681 30.1059 13.2034 29.6135C16.9126 28.6252 20.6235 27.8824 25.8168 27.8824C34.2269 27.8824 42.3882 29.8622 48.8185 33.8168C49.8067 34.3092 50.3025 35.3008 50.3025 36.2891C50.3025 37.7748 49.3126 39.0101 47.8286 39.0101ZM51.7866 29.121C51.0454 29.121 50.7966 28.874 50.0555 28.6286C44.1193 25.1647 35.2168 23.1849 26.5597 23.1849C22.1076 23.1849 17.6555 23.6807 13.6992 24.6689C13.2034 24.6689 12.7092 24.916 11.9681 24.916C10.237 25.163 9 23.6807 9 21.9479C9 20.2168 9.98992 19.2286 11.2252 18.9798C15.9244 17.4958 20.8706 17 26.5597 17C35.958 17 45.8504 18.9798 53.2706 23.1832C54.2588 23.679 55 24.6672 55 26.1513C54.7546 27.8824 53.516 29.121 51.7866 29.121Z" fill="white"/>
</svg>
